<mxfile host="app.diagrams.net" agent="Mozilla/5.0 (Windows NT 10.0; Win64; x64) AppleWebKit/537.36 (KHTML, like Gecko) Chrome/131.0.0.0 Safari/537.36" version="25.0.3">
  <diagram name="Page-1" id="929967ad-93f9-6ef4-fab6-5d389245f69c">
    <mxGraphModel dx="1500" dy="757" grid="1" gridSize="10" guides="1" tooltips="1" connect="1" arrows="1" fold="1" page="1" pageScale="1.5" pageWidth="1169" pageHeight="826" background="none" math="0" shadow="0">
      <root>
        <mxCell id="0" style=";html=1;" />
        <mxCell id="1" style=";html=1;" parent="0" />
        <mxCell id="1672d66443f91eb5-23" value="Диаграмма вариантов использования UML" style="text;strokeColor=none;fillColor=none;html=1;fontSize=24;fontStyle=1;verticalAlign=middle;align=center;" parent="1" vertex="1">
          <mxGeometry x="120" y="40" width="1510" height="40" as="geometry" />
        </mxCell>
        <mxCell id="a4KApyw2-YEzG5rcAI-H-1" value="Кандидат" style="shape=umlActor;verticalLabelPosition=bottom;verticalAlign=top;html=1;outlineConnect=0;" vertex="1" parent="1">
          <mxGeometry x="537" y="320" width="30" height="60" as="geometry" />
        </mxCell>
        <mxCell id="a4KApyw2-YEzG5rcAI-H-2" value="HR-м&lt;span style=&quot;background-color: initial;&quot;&gt;енеджер&lt;/span&gt;" style="shape=umlActor;verticalLabelPosition=bottom;verticalAlign=top;html=1;outlineConnect=0;" vertex="1" parent="1">
          <mxGeometry x="1017" y="180" width="30" height="60" as="geometry" />
        </mxCell>
        <mxCell id="a4KApyw2-YEzG5rcAI-H-3" value="Отправить приглашение&amp;nbsp;&lt;div&gt;в чат-бот&lt;/div&gt;" style="ellipse;whiteSpace=wrap;html=1;" vertex="1" parent="1">
          <mxGeometry x="822" y="140" width="140" height="50" as="geometry" />
        </mxCell>
        <mxCell id="a4KApyw2-YEzG5rcAI-H-4" value="Система обработки&lt;div&gt;текстов&lt;/div&gt;" style="shape=umlActor;verticalLabelPosition=bottom;verticalAlign=top;html=1;outlineConnect=0;" vertex="1" parent="1">
          <mxGeometry x="537" y="580" width="30" height="60" as="geometry" />
        </mxCell>
        <mxCell id="a4KApyw2-YEzG5rcAI-H-13" value="" style="endArrow=none;html=1;edgeStyle=orthogonalEdgeStyle;rounded=0;entryX=0;entryY=0.5;entryDx=0;entryDy=0;elbow=vertical;exitX=0.5;exitY=0.5;exitDx=0;exitDy=0;exitPerimeter=0;curved=1;" edge="1" parent="1" source="a4KApyw2-YEzG5rcAI-H-1" target="a4KApyw2-YEzG5rcAI-H-35">
          <mxGeometry relative="1" as="geometry">
            <mxPoint x="367" y="150" as="sourcePoint" />
            <mxPoint x="702" y="120" as="targetPoint" />
          </mxGeometry>
        </mxCell>
        <mxCell id="a4KApyw2-YEzG5rcAI-H-15" value="Регистрация" style="ellipse;whiteSpace=wrap;html=1;" vertex="1" parent="1">
          <mxGeometry x="692" y="230" width="90" height="40" as="geometry" />
        </mxCell>
        <mxCell id="a4KApyw2-YEzG5rcAI-H-16" value="" style="endArrow=none;html=1;edgeStyle=orthogonalEdgeStyle;rounded=0;entryX=0;entryY=0.5;entryDx=0;entryDy=0;elbow=vertical;exitX=0.5;exitY=0.5;exitDx=0;exitDy=0;exitPerimeter=0;curved=1;" edge="1" parent="1" source="a4KApyw2-YEzG5rcAI-H-1" target="a4KApyw2-YEzG5rcAI-H-15">
          <mxGeometry relative="1" as="geometry">
            <mxPoint x="372" y="280" as="sourcePoint" />
            <mxPoint x="507" y="155" as="targetPoint" />
          </mxGeometry>
        </mxCell>
        <mxCell id="a4KApyw2-YEzG5rcAI-H-17" value="" style="endArrow=none;html=1;edgeStyle=orthogonalEdgeStyle;rounded=0;elbow=vertical;exitX=0.5;exitY=0.5;exitDx=0;exitDy=0;exitPerimeter=0;curved=1;entryX=1;entryY=0.5;entryDx=0;entryDy=0;" edge="1" parent="1" source="a4KApyw2-YEzG5rcAI-H-2" target="a4KApyw2-YEzG5rcAI-H-18">
          <mxGeometry relative="1" as="geometry">
            <mxPoint x="372" y="280" as="sourcePoint" />
            <mxPoint x="722" y="255" as="targetPoint" />
          </mxGeometry>
        </mxCell>
        <mxCell id="a4KApyw2-YEzG5rcAI-H-18" value="Войти в систему" style="ellipse;whiteSpace=wrap;html=1;" vertex="1" parent="1">
          <mxGeometry x="692" y="370" width="90" height="40" as="geometry" />
        </mxCell>
        <mxCell id="a4KApyw2-YEzG5rcAI-H-19" value="" style="endArrow=none;html=1;edgeStyle=orthogonalEdgeStyle;rounded=0;entryX=0;entryY=0.5;entryDx=0;entryDy=0;elbow=vertical;exitX=0.5;exitY=0.5;exitDx=0;exitDy=0;exitPerimeter=0;curved=1;" edge="1" parent="1" source="a4KApyw2-YEzG5rcAI-H-1" target="a4KApyw2-YEzG5rcAI-H-18">
          <mxGeometry relative="1" as="geometry">
            <mxPoint x="372" y="280" as="sourcePoint" />
            <mxPoint x="507" y="250" as="targetPoint" />
          </mxGeometry>
        </mxCell>
        <mxCell id="a4KApyw2-YEzG5rcAI-H-23" value="Чат-бот" style="shape=umlActor;verticalLabelPosition=bottom;verticalAlign=top;html=1;outlineConnect=0;" vertex="1" parent="1">
          <mxGeometry x="1017" y="320" width="30" height="60" as="geometry" />
        </mxCell>
        <mxCell id="a4KApyw2-YEzG5rcAI-H-26" value="Ответить на вопросы" style="ellipse;whiteSpace=wrap;html=1;" vertex="1" parent="1">
          <mxGeometry x="610" y="450" width="90" height="40" as="geometry" />
        </mxCell>
        <mxCell id="a4KApyw2-YEzG5rcAI-H-27" value="Задать вопросы" style="ellipse;whiteSpace=wrap;html=1;" vertex="1" parent="1">
          <mxGeometry x="797" y="410" width="90" height="40" as="geometry" />
        </mxCell>
        <mxCell id="a4KApyw2-YEzG5rcAI-H-28" value="Собрать ответы" style="ellipse;whiteSpace=wrap;html=1;" vertex="1" parent="1">
          <mxGeometry x="737" y="520" width="90" height="40" as="geometry" />
        </mxCell>
        <mxCell id="a4KApyw2-YEzG5rcAI-H-29" value="Передать ответы" style="ellipse;whiteSpace=wrap;html=1;" vertex="1" parent="1">
          <mxGeometry x="822" y="610" width="90" height="40" as="geometry" />
        </mxCell>
        <mxCell id="a4KApyw2-YEzG5rcAI-H-30" value="Обработать ответы" style="ellipse;whiteSpace=wrap;html=1;" vertex="1" parent="1">
          <mxGeometry x="602" y="530" width="90" height="40" as="geometry" />
        </mxCell>
        <mxCell id="a4KApyw2-YEzG5rcAI-H-31" value="Сгенерировать отчет" style="ellipse;whiteSpace=wrap;html=1;" vertex="1" parent="1">
          <mxGeometry x="777" y="730" width="100" height="40" as="geometry" />
        </mxCell>
        <mxCell id="a4KApyw2-YEzG5rcAI-H-32" value="Предоставить рекомендации" style="ellipse;whiteSpace=wrap;html=1;" vertex="1" parent="1">
          <mxGeometry x="777" y="820" width="100" height="50" as="geometry" />
        </mxCell>
        <mxCell id="a4KApyw2-YEzG5rcAI-H-33" value="Просмотреть отчет" style="ellipse;whiteSpace=wrap;html=1;" vertex="1" parent="1">
          <mxGeometry x="1057" y="560" width="90" height="40" as="geometry" />
        </mxCell>
        <mxCell id="a4KApyw2-YEzG5rcAI-H-34" value="Запросить уточнения" style="ellipse;whiteSpace=wrap;html=1;" vertex="1" parent="1">
          <mxGeometry x="1127" y="330" width="90" height="40" as="geometry" />
        </mxCell>
        <mxCell id="a4KApyw2-YEzG5rcAI-H-35" value="Принять приглашение&amp;nbsp;&lt;div&gt;в чат-бот&lt;/div&gt;" style="ellipse;whiteSpace=wrap;html=1;" vertex="1" parent="1">
          <mxGeometry x="597" y="140" width="140" height="50" as="geometry" />
        </mxCell>
        <mxCell id="a4KApyw2-YEzG5rcAI-H-38" value="include" style="endArrow=open;endSize=12;dashed=1;html=1;rounded=0;exitX=0;exitY=0.5;exitDx=0;exitDy=0;entryX=1;entryY=0.5;entryDx=0;entryDy=0;edgeStyle=orthogonalEdgeStyle;curved=1;" edge="1" parent="1" source="a4KApyw2-YEzG5rcAI-H-3" target="a4KApyw2-YEzG5rcAI-H-35">
          <mxGeometry x="-0.0118" y="-15" width="160" relative="1" as="geometry">
            <mxPoint x="827" y="220" as="sourcePoint" />
            <mxPoint x="782" y="290" as="targetPoint" />
            <mxPoint as="offset" />
          </mxGeometry>
        </mxCell>
        <mxCell id="a4KApyw2-YEzG5rcAI-H-39" value="include" style="endArrow=open;endSize=12;dashed=1;html=1;rounded=0;exitX=1;exitY=1;exitDx=0;exitDy=0;entryX=0.5;entryY=0;entryDx=0;entryDy=0;edgeStyle=orthogonalEdgeStyle;curved=1;" edge="1" parent="1" source="a4KApyw2-YEzG5rcAI-H-35" target="a4KApyw2-YEzG5rcAI-H-15">
          <mxGeometry x="-0.1643" y="-17" width="160" relative="1" as="geometry">
            <mxPoint x="867" y="125" as="sourcePoint" />
            <mxPoint x="757" y="145" as="targetPoint" />
            <mxPoint x="-17" y="-17" as="offset" />
          </mxGeometry>
        </mxCell>
        <mxCell id="a4KApyw2-YEzG5rcAI-H-40" value="Присвоение уникального id" style="ellipse;whiteSpace=wrap;html=1;" vertex="1" parent="1">
          <mxGeometry x="797" y="270" width="100" height="44" as="geometry" />
        </mxCell>
        <mxCell id="a4KApyw2-YEzG5rcAI-H-41" value="extend" style="endArrow=open;endSize=12;dashed=1;html=1;rounded=0;exitX=1;exitY=0.5;exitDx=0;exitDy=0;entryX=0.5;entryY=0;entryDx=0;entryDy=0;edgeStyle=orthogonalEdgeStyle;curved=1;" edge="1" parent="1" source="a4KApyw2-YEzG5rcAI-H-15" target="a4KApyw2-YEzG5rcAI-H-40">
          <mxGeometry x="-0.2002" y="10" width="160" relative="1" as="geometry">
            <mxPoint x="736" y="163" as="sourcePoint" />
            <mxPoint x="782" y="200" as="targetPoint" />
            <mxPoint as="offset" />
          </mxGeometry>
        </mxCell>
        <mxCell id="a4KApyw2-YEzG5rcAI-H-43" value="" style="endArrow=none;html=1;edgeStyle=orthogonalEdgeStyle;rounded=0;elbow=vertical;exitX=0.5;exitY=0.5;exitDx=0;exitDy=0;exitPerimeter=0;curved=1;entryX=1;entryY=0.5;entryDx=0;entryDy=0;" edge="1" parent="1" source="a4KApyw2-YEzG5rcAI-H-23" target="a4KApyw2-YEzG5rcAI-H-40">
          <mxGeometry relative="1" as="geometry">
            <mxPoint x="1092" y="190" as="sourcePoint" />
            <mxPoint x="827" y="310" as="targetPoint" />
          </mxGeometry>
        </mxCell>
        <mxCell id="a4KApyw2-YEzG5rcAI-H-44" value="" style="endArrow=none;html=1;edgeStyle=orthogonalEdgeStyle;rounded=0;elbow=vertical;exitX=0.5;exitY=0.5;exitDx=0;exitDy=0;exitPerimeter=0;curved=1;entryX=1;entryY=0.5;entryDx=0;entryDy=0;" edge="1" parent="1" source="a4KApyw2-YEzG5rcAI-H-2" target="a4KApyw2-YEzG5rcAI-H-3">
          <mxGeometry relative="1" as="geometry">
            <mxPoint x="1092" y="190" as="sourcePoint" />
            <mxPoint x="827" y="310" as="targetPoint" />
          </mxGeometry>
        </mxCell>
        <mxCell id="a4KApyw2-YEzG5rcAI-H-45" value="extend" style="endArrow=open;endSize=12;dashed=1;html=1;rounded=0;exitX=0.5;exitY=1;exitDx=0;exitDy=0;entryX=0.5;entryY=0;entryDx=0;entryDy=0;edgeStyle=orthogonalEdgeStyle;curved=1;" edge="1" parent="1" source="a4KApyw2-YEzG5rcAI-H-40" target="a4KApyw2-YEzG5rcAI-H-18">
          <mxGeometry x="-0.0065" y="-7" width="160" relative="1" as="geometry">
            <mxPoint x="827" y="240" as="sourcePoint" />
            <mxPoint x="877" y="280" as="targetPoint" />
            <mxPoint as="offset" />
          </mxGeometry>
        </mxCell>
        <mxCell id="a4KApyw2-YEzG5rcAI-H-46" value="" style="endArrow=none;html=1;edgeStyle=orthogonalEdgeStyle;rounded=0;elbow=vertical;curved=1;entryX=1;entryY=0.5;entryDx=0;entryDy=0;exitX=0.5;exitY=0.5;exitDx=0;exitDy=0;exitPerimeter=0;" edge="1" parent="1" source="a4KApyw2-YEzG5rcAI-H-23" target="a4KApyw2-YEzG5rcAI-H-27">
          <mxGeometry relative="1" as="geometry">
            <mxPoint x="1097" y="350" as="sourcePoint" />
            <mxPoint x="927" y="302" as="targetPoint" />
          </mxGeometry>
        </mxCell>
        <mxCell id="a4KApyw2-YEzG5rcAI-H-47" value="" style="endArrow=none;html=1;edgeStyle=orthogonalEdgeStyle;rounded=0;entryX=0;entryY=0.5;entryDx=0;entryDy=0;elbow=vertical;exitX=0.5;exitY=0.5;exitDx=0;exitDy=0;exitPerimeter=0;curved=1;" edge="1" parent="1" source="a4KApyw2-YEzG5rcAI-H-1" target="a4KApyw2-YEzG5rcAI-H-26">
          <mxGeometry relative="1" as="geometry">
            <mxPoint x="432" y="340" as="sourcePoint" />
            <mxPoint x="747" y="380" as="targetPoint" />
          </mxGeometry>
        </mxCell>
        <mxCell id="a4KApyw2-YEzG5rcAI-H-48" value="include" style="endArrow=open;endSize=12;dashed=1;html=1;rounded=0;exitX=1;exitY=0.5;exitDx=0;exitDy=0;entryX=0;entryY=0;entryDx=0;entryDy=0;edgeStyle=orthogonalEdgeStyle;curved=1;" edge="1" parent="1" source="a4KApyw2-YEzG5rcAI-H-26" target="a4KApyw2-YEzG5rcAI-H-28">
          <mxGeometry x="-0.2458" width="160" relative="1" as="geometry">
            <mxPoint x="736" y="163" as="sourcePoint" />
            <mxPoint x="782" y="220" as="targetPoint" />
            <mxPoint as="offset" />
          </mxGeometry>
        </mxCell>
        <mxCell id="a4KApyw2-YEzG5rcAI-H-49" value="include" style="endArrow=open;endSize=12;dashed=1;html=1;rounded=0;exitX=0;exitY=0.5;exitDx=0;exitDy=0;entryX=1;entryY=0;entryDx=0;entryDy=0;edgeStyle=orthogonalEdgeStyle;curved=1;" edge="1" parent="1" source="a4KApyw2-YEzG5rcAI-H-27" target="a4KApyw2-YEzG5rcAI-H-28">
          <mxGeometry x="0.3269" y="15" width="160" relative="1" as="geometry">
            <mxPoint x="757" y="450" as="sourcePoint" />
            <mxPoint x="786" y="497" as="targetPoint" />
            <mxPoint as="offset" />
          </mxGeometry>
        </mxCell>
        <mxCell id="a4KApyw2-YEzG5rcAI-H-50" value="" style="endArrow=none;html=1;edgeStyle=orthogonalEdgeStyle;rounded=0;elbow=vertical;curved=1;entryX=1;entryY=0.5;entryDx=0;entryDy=0;exitX=0.5;exitY=0.5;exitDx=0;exitDy=0;exitPerimeter=0;" edge="1" parent="1" source="a4KApyw2-YEzG5rcAI-H-23" target="a4KApyw2-YEzG5rcAI-H-28">
          <mxGeometry relative="1" as="geometry">
            <mxPoint x="1112" y="360" as="sourcePoint" />
            <mxPoint x="927" y="450" as="targetPoint" />
          </mxGeometry>
        </mxCell>
        <mxCell id="a4KApyw2-YEzG5rcAI-H-51" value="" style="endArrow=none;html=1;edgeStyle=orthogonalEdgeStyle;rounded=0;elbow=vertical;curved=1;entryX=1;entryY=0.5;entryDx=0;entryDy=0;exitX=0.5;exitY=0.5;exitDx=0;exitDy=0;exitPerimeter=0;" edge="1" parent="1" source="a4KApyw2-YEzG5rcAI-H-23" target="a4KApyw2-YEzG5rcAI-H-29">
          <mxGeometry relative="1" as="geometry">
            <mxPoint x="1112" y="360" as="sourcePoint" />
            <mxPoint x="837" y="550" as="targetPoint" />
          </mxGeometry>
        </mxCell>
        <mxCell id="a4KApyw2-YEzG5rcAI-H-52" value="extend" style="endArrow=open;endSize=12;dashed=1;html=1;rounded=0;exitX=0.5;exitY=1;exitDx=0;exitDy=0;entryX=0.5;entryY=0;entryDx=0;entryDy=0;edgeStyle=orthogonalEdgeStyle;curved=1;" edge="1" parent="1" source="a4KApyw2-YEzG5rcAI-H-28" target="a4KApyw2-YEzG5rcAI-H-29">
          <mxGeometry x="-0.2146" y="15" width="160" relative="1" as="geometry">
            <mxPoint x="877" y="324" as="sourcePoint" />
            <mxPoint x="792" y="360" as="targetPoint" />
            <mxPoint as="offset" />
          </mxGeometry>
        </mxCell>
        <mxCell id="a4KApyw2-YEzG5rcAI-H-53" value="exclude" style="endArrow=open;endSize=12;dashed=1;html=1;rounded=0;exitX=0.5;exitY=1;exitDx=0;exitDy=0;entryX=1;entryY=0.5;entryDx=0;entryDy=0;edgeStyle=orthogonalEdgeStyle;curved=1;" edge="1" parent="1" source="a4KApyw2-YEzG5rcAI-H-29" target="a4KApyw2-YEzG5rcAI-H-30">
          <mxGeometry x="-0.41" y="-20" width="160" relative="1" as="geometry">
            <mxPoint x="792" y="570" as="sourcePoint" />
            <mxPoint x="877" y="620" as="targetPoint" />
            <mxPoint as="offset" />
          </mxGeometry>
        </mxCell>
        <mxCell id="a4KApyw2-YEzG5rcAI-H-54" value="" style="endArrow=none;html=1;edgeStyle=orthogonalEdgeStyle;rounded=0;entryX=0;entryY=0.5;entryDx=0;entryDy=0;elbow=vertical;exitX=0.5;exitY=0.5;exitDx=0;exitDy=0;exitPerimeter=0;curved=1;" edge="1" parent="1" source="a4KApyw2-YEzG5rcAI-H-4" target="a4KApyw2-YEzG5rcAI-H-30">
          <mxGeometry relative="1" as="geometry">
            <mxPoint x="432" y="340" as="sourcePoint" />
            <mxPoint x="667" y="450" as="targetPoint" />
          </mxGeometry>
        </mxCell>
        <mxCell id="a4KApyw2-YEzG5rcAI-H-55" value="" style="endArrow=none;html=1;edgeStyle=orthogonalEdgeStyle;rounded=0;entryX=0;entryY=0.5;entryDx=0;entryDy=0;elbow=vertical;exitX=0.5;exitY=0.5;exitDx=0;exitDy=0;exitPerimeter=0;curved=1;" edge="1" parent="1" source="a4KApyw2-YEzG5rcAI-H-4" target="a4KApyw2-YEzG5rcAI-H-31">
          <mxGeometry relative="1" as="geometry">
            <mxPoint x="422" y="630" as="sourcePoint" />
            <mxPoint x="642" y="640" as="targetPoint" />
          </mxGeometry>
        </mxCell>
        <mxCell id="a4KApyw2-YEzG5rcAI-H-56" value="" style="endArrow=none;html=1;edgeStyle=orthogonalEdgeStyle;rounded=0;entryX=0;entryY=0.5;entryDx=0;entryDy=0;elbow=vertical;exitX=0.5;exitY=0.5;exitDx=0;exitDy=0;exitPerimeter=0;curved=1;" edge="1" parent="1" source="a4KApyw2-YEzG5rcAI-H-4" target="a4KApyw2-YEzG5rcAI-H-32">
          <mxGeometry relative="1" as="geometry">
            <mxPoint x="422" y="630" as="sourcePoint" />
            <mxPoint x="632" y="700" as="targetPoint" />
          </mxGeometry>
        </mxCell>
        <mxCell id="a4KApyw2-YEzG5rcAI-H-57" value="include" style="endArrow=open;endSize=12;dashed=1;html=1;rounded=0;exitX=0.5;exitY=1;exitDx=0;exitDy=0;entryX=0.5;entryY=0;entryDx=0;entryDy=0;edgeStyle=orthogonalEdgeStyle;curved=1;" edge="1" parent="1" source="a4KApyw2-YEzG5rcAI-H-30" target="a4KApyw2-YEzG5rcAI-H-31">
          <mxGeometry x="-0.0439" y="10" width="160" relative="1" as="geometry">
            <mxPoint x="837" y="450" as="sourcePoint" />
            <mxPoint x="824" y="536" as="targetPoint" />
            <mxPoint as="offset" />
          </mxGeometry>
        </mxCell>
        <mxCell id="a4KApyw2-YEzG5rcAI-H-58" value="include" style="endArrow=open;endSize=12;dashed=1;html=1;rounded=0;exitX=0.5;exitY=1;exitDx=0;exitDy=0;entryX=0.5;entryY=0;entryDx=0;entryDy=0;edgeStyle=orthogonalEdgeStyle;curved=1;" edge="1" parent="1" source="a4KApyw2-YEzG5rcAI-H-31" target="a4KApyw2-YEzG5rcAI-H-32">
          <mxGeometry x="-0.2" y="23" width="160" relative="1" as="geometry">
            <mxPoint x="687" y="660" as="sourcePoint" />
            <mxPoint x="747" y="740" as="targetPoint" />
            <mxPoint as="offset" />
          </mxGeometry>
        </mxCell>
        <mxCell id="a4KApyw2-YEzG5rcAI-H-59" value="include" style="endArrow=open;endSize=12;dashed=1;html=1;rounded=0;exitX=1;exitY=0.5;exitDx=0;exitDy=0;entryX=0;entryY=0.5;entryDx=0;entryDy=0;edgeStyle=orthogonalEdgeStyle;curved=1;" edge="1" parent="1" source="a4KApyw2-YEzG5rcAI-H-32" target="a4KApyw2-YEzG5rcAI-H-33">
          <mxGeometry x="-0.0957" y="19" width="160" relative="1" as="geometry">
            <mxPoint x="747" y="780" as="sourcePoint" />
            <mxPoint x="757" y="830" as="targetPoint" />
            <mxPoint as="offset" />
          </mxGeometry>
        </mxCell>
        <mxCell id="a4KApyw2-YEzG5rcAI-H-60" value="" style="endArrow=none;html=1;edgeStyle=orthogonalEdgeStyle;rounded=0;elbow=vertical;exitX=0.5;exitY=0.5;exitDx=0;exitDy=0;exitPerimeter=0;curved=1;entryX=0.5;entryY=0;entryDx=0;entryDy=0;" edge="1" parent="1" source="a4KApyw2-YEzG5rcAI-H-2" target="a4KApyw2-YEzG5rcAI-H-33">
          <mxGeometry relative="1" as="geometry">
            <mxPoint x="1092" y="190" as="sourcePoint" />
            <mxPoint x="1007" y="145" as="targetPoint" />
          </mxGeometry>
        </mxCell>
        <mxCell id="a4KApyw2-YEzG5rcAI-H-61" value="" style="endArrow=none;html=1;edgeStyle=orthogonalEdgeStyle;rounded=0;elbow=vertical;curved=1;exitX=0.5;exitY=0.5;exitDx=0;exitDy=0;exitPerimeter=0;entryX=0.5;entryY=0;entryDx=0;entryDy=0;" edge="1" parent="1" source="a4KApyw2-YEzG5rcAI-H-2" target="a4KApyw2-YEzG5rcAI-H-34">
          <mxGeometry relative="1" as="geometry">
            <mxPoint x="1087" y="180" as="sourcePoint" />
            <mxPoint x="1277" y="270" as="targetPoint" />
          </mxGeometry>
        </mxCell>
        <mxCell id="a4KApyw2-YEzG5rcAI-H-62" value="extend" style="endArrow=open;endSize=12;dashed=1;html=1;rounded=0;exitX=1;exitY=0.5;exitDx=0;exitDy=0;entryX=0.5;entryY=1;entryDx=0;entryDy=0;edgeStyle=orthogonalEdgeStyle;curved=1;" edge="1" parent="1" source="a4KApyw2-YEzG5rcAI-H-33" target="a4KApyw2-YEzG5rcAI-H-34">
          <mxGeometry x="0.0637" y="25" width="160" relative="1" as="geometry">
            <mxPoint x="827" y="240" as="sourcePoint" />
            <mxPoint x="877" y="280" as="targetPoint" />
            <mxPoint as="offset" />
          </mxGeometry>
        </mxCell>
      </root>
    </mxGraphModel>
  </diagram>
</mxfile>
